<?xml version="1.0" standalone="no"?>
<!DOCTYPE svg PUBLIC "-//W3C//DTD SVG 20010904//EN"
 "http://www.w3.org/TR/2001/REC-SVG-20010904/DTD/svg10.dtd">
<svg version="1.0" xmlns="http://www.w3.org/2000/svg"
 width="260.000000pt" height="260.000000pt" viewBox="0 0 260.000000 260.000000"
 preserveAspectRatio="xMidYMid meet">
<metadata>
Created by potrace 1.11, written by Peter Selinger 2001-2013
</metadata>
<g transform="translate(0.000000,260.000000) scale(0.100000,-0.100000)"
fill="#000000" stroke="none">
<path d="M0 1300 l0 -1300 998 0 999 0 9 21 c9 20 16 21 188 19 144 -1 193 -5
250 -20 39 -11 82 -20 97 -20 24 0 27 5 38 68 19 102 24 169 13 157 -5 -5 -22
-41 -37 -80 -40 -99 -42 -100 -101 -79 -40 15 -83 19 -234 20 -105 1 -197 6
-212 12 -66 27 -79 96 -48 252 20 102 21 120 10 189 -7 42 -29 119 -50 171
-21 52 -37 106 -35 120 1 14 3 30 4 37 3 27 42 24 89 -6 26 -16 99 -57 162
-90 63 -33 125 -69 138 -80 13 -11 60 -39 106 -60 45 -22 108 -56 141 -75 32
-20 63 -36 68 -36 4 0 7 12 5 28 -3 23 -18 35 -118 87 -205 108 -352 187 -402
216 -27 16 -52 29 -57 29 -4 0 -17 10 -30 21 -20 19 -21 23 -8 36 13 14 19 14
49 -2 76 -38 137 -56 208 -61 85 -6 159 -27 210 -59 39 -25 136 -75 145 -75 3
0 5 10 5 23 0 25 -43 55 -135 93 -27 11 -50 25 -50 32 0 6 21 24 46 40 55 35
79 81 79 151 0 42 -5 57 -26 78 -25 25 -29 25 -110 20 -60 -3 -91 -10 -104
-22 -14 -13 -32 -16 -82 -13 -35 2 -69 6 -77 8 -8 3 -16 -2 -18 -11 -9 -41
109 -51 222 -19 88 25 117 25 140 0 42 -47 7 -130 -73 -173 -45 -25 -63 -28
-144 -30 l-93 -1 -103 52 c-57 29 -108 50 -113 46 -5 -3 -9 -13 -9 -24 0 -11
-20 -31 -52 -51 -29 -18 -65 -42 -79 -54 l-26 -21 24 -17 c13 -10 23 -26 23
-35 0 -9 18 -65 39 -124 46 -130 50 -197 21 -352 -11 -60 -21 -110 -22 -111
-2 -2 -22 -12 -45 -24 -55 -27 -102 -27 -144 2 -50 34 -48 55 12 106 49 42 52
43 65 26 8 -10 14 -25 14 -32 0 -22 20 -14 30 12 22 57 -78 238 -157 285 -47
28 -107 37 -128 20 -26 -22 -17 -30 34 -30 73 0 84 -20 35 -66 -52 -50 -111
-87 -127 -81 -16 6 -48 104 -50 155 -1 25 9 59 28 98 28 54 33 59 70 65 22 3
-36 7 -128 8 -93 0 -187 6 -211 12 -57 14 -103 59 -117 115 -20 79 -51 68 -38
-14 4 -26 8 -53 8 -59 1 -22 -70 -15 -127 12 -41 19 -56 33 -68 60 -18 43 -40
54 -59 29 -13 -19 -14 -19 -48 -1 -58 31 -72 86 -36 143 11 19 18 38 14 44
-27 44 -81 -54 -71 -130 8 -59 1 -63 -84 -45 -106 22 -144 67 -123 146 9 33 8
42 -4 46 -23 9 -35 -12 -42 -74 -7 -68 -18 -74 -83 -44 -48 21 -72 45 -82 78
-12 39 28 92 71 93 29 0 39 18 21 37 -20 19 -58 9 -98 -27 -18 -16 -38 -26
-46 -23 -18 7 -28 46 -20 76 12 48 107 62 176 27 35 -18 42 -18 72 -6 18 8 76
22 128 31 94 17 129 33 116 54 -4 5 -22 13 -41 17 -41 7 -59 26 -50 53 7 24
46 37 150 52 96 13 209 50 240 79 33 31 110 193 120 255 13 70 75 247 122 342
34 70 54 100 85 122 83 61 180 47 225 -34 28 -48 62 -158 103 -325 52 -209 90
-308 163 -423 48 -74 85 -108 113 -101 12 3 25 1 28 -5 24 -39 51 39 41 117
-4 31 -9 70 -11 85 -2 16 -24 93 -50 170 -35 109 -44 152 -41 187 7 73 25 128
63 193 68 120 77 146 78 232 1 58 -6 101 -23 158 l-24 77 -963 0 -964 0 0
-1300z m1131 -547 c33 -20 34 -25 15 -102 -18 -72 -29 -294 -16 -346 12 -51
35 -68 82 -62 48 6 207 104 365 224 46 35 85 63 88 63 9 0 56 -55 71 -83 18
-34 12 -48 -58 -112 -149 -139 -430 -295 -533 -295 -44 0 -96 32 -116 71 -25
48 -42 224 -34 344 7 113 31 270 46 297 12 23 52 23 90 1z"/>
<path d="M2550 2587 c0 -16 40 -137 46 -137 2 0 4 34 4 75 0 73 -1 75 -25 75
-14 0 -25 -6 -25 -13z"/>
<path d="M1188 1010 c-26 -16 -22 -30 10 -30 15 0 71 -5 124 -12 104 -13 145
-6 128 22 -6 10 -27 15 -67 16 -32 0 -85 4 -118 8 -38 4 -66 3 -77 -4z"/>
<path d="M1748 843 c7 -3 16 -2 19 1 4 3 -2 6 -13 5 -11 0 -14 -3 -6 -6z"/>
<path d="M1665 815 c-24 -11 -26 -14 -9 -14 11 -1 29 6 40 14 24 18 8 18 -31
0z"/>
<path d="M1585 790 c-18 -8 -17 -9 7 -9 15 -1 30 4 33 9 7 12 -12 12 -40 0z"/>
</g>
</svg>
